<?xml version="1.0" encoding="UTF-8"?>
<svg id="Layer_1" data-name="Layer 1" xmlns="http://www.w3.org/2000/svg" xmlns:xlink="http://www.w3.org/1999/xlink" viewBox="0 0 144 144">
  <defs>
    <style>
      .cls-1 {
        fill: #db282e;
      }

      .cls-1, .cls-2, .cls-3, .cls-4, .cls-5 {
        stroke-width: 0px;
      }

      .cls-2 {
        fill: #af101b;
      }

      .cls-3 {
        fill: url(#radial-gradient-2);
      }

      .cls-4 {
        fill: #231f20;
      }

      .cls-5 {
        fill: url(#radial-gradient);
      }
    </style>
    <radialGradient id="radial-gradient" cx="116.31" cy="33.03" fx="116.31" fy="33.03" r="130.17" gradientUnits="userSpaceOnUse">
      <stop offset="0" stop-color="purple"/>
      <stop offset=".43" stop-color="#770078"/>
      <stop offset="1" stop-color="#650068"/>
    </radialGradient>
    <radialGradient id="radial-gradient-2" cx="72.97" cy="99.28" fx="72.97" fy="99.28" r=".27" gradientUnits="userSpaceOnUse">
      <stop offset="0" stop-color="purple"/>
      <stop offset=".22" stop-color="#7c007c"/>
      <stop offset=".39" stop-color="#720072"/>
      <stop offset=".55" stop-color="#620062"/>
      <stop offset=".7" stop-color="#4a004a"/>
      <stop offset=".84" stop-color="#2b002b"/>
      <stop offset=".98" stop-color="#060006"/>
      <stop offset="1" stop-color="#000"/>
    </radialGradient>
  </defs>
  <g>
    <rect class="cls-4" x="61.96" y="21.62" width="20.65" height=".19" transform="translate(-.03 .1) rotate(-.08)"/>
    <path class="cls-4" d="m80.83,21.61l-1.91-1.91-1.92,1.91-.09.09,2,2,1.9-1.9h0s.1-.1.1-.1l-.09-.09Zm-1.91,1.68l-1.59-1.59.09-.09,1.5-1.5,1.59,1.59-.1.1-1.49,1.49Z"/>
    <path class="cls-4" d="m65.55,19.72l-1.9,1.9h0s-.09.1-.09.1l.09.1,1.9,1.9,1.91-1.91.09-.09-2-2Zm0,3.59l-1.49-1.5-.09-.09.1-.1,1.49-1.49,1.49,1.49h0s.1.1.1.1l-.09.09h0s-1.5,1.5-1.5,1.5Z"/>
    <path class="cls-4" d="m78,16.09l-.02-.25h0s0-.05,0-.05l-1.87.13.11,1.69h0s.01.19.01.19h.08s1.8-.13,1.8-.13l-.11-1.57Zm-1.48,1.49h-.11s-.01-.16-.01-.16h0s-.09-1.33-.09-1.33l1.49-.1v.03l.02.25h0s.09,1.21.09,1.21l-1.38.09Z"/>
    <path class="cls-4" d="m68.23,15.83l-1.63.11h0l-.24.02v.02s.13,1.86.13,1.86l1.62-.11h0l.25-.02h0s-.13-1.88-.13-1.88Zm-.08,1.7l-.22.02h0l-1.26.09-.1-1.44v-.05h.22s0-.01,0-.01l1.27-.09.1,1.45v.04Z"/>
    <path class="cls-4" d="m66.63,21.63h0s-1.22-1.07-1.22-1.07l-.93,1.07-.16.18h.01s1.23,1.08,1.23,1.08l.94-1.07.15-.18-.02-.02Zm-1.08,1.06l-.99-.87-.03-.03.14-.16.75-.86.99.86h0s.04.04.04.04l-.14.16-.76.87Z"/>
    <path class="cls-4" d="m78.92,20.45l-1.01,1.16-.07.09.12.11,1.12.98.86-.98.16-.19h0s.07-.08.07-.08l-1.25-1.08Zm.82,1.35l-.68.77-.89-.77-.14-.12.06-.07.84-.96,1.03.9-.05.06h0s-.16.2-.16.2Z"/>
    <ellipse class="cls-4" cx="81.99" cy="21.7" rx=".77" ry=".58"/>
    <ellipse class="cls-4" cx="62.51" cy="21.7" rx=".77" ry=".58"/>
    <ellipse class="cls-4" cx="78.76" cy="15.29" rx=".58" ry=".43" transform="translate(12.25 60.17) rotate(-45)"/>
    <ellipse class="cls-4" cx="65.73" cy="15.13" rx=".43" ry=".58" transform="translate(8.55 50.91) rotate(-45)"/>
    <rect class="cls-4" x="72.14" y="11.9" width=".19" height="19.6" transform="translate(5.86 57.52) rotate(-45.07)"/>
    <rect class="cls-4" x="62.56" y="21.63" width="19.35" height=".19" transform="translate(5.83 57.51) rotate(-45.06)"/>
    <path class="cls-4" d="m76.66,21.61h0c-.03-1.15-.49-2.18-1.24-2.95-.05-.05-.09-.09-.14-.13h0c-.75-.71-1.74-1.16-2.84-1.21-.06,0-.12,0-.18,0-.11,0-.22,0-.32.01-1.06.08-2.01.53-2.73,1.22-.05.05-.09.09-.14.14-.73.77-1.19,1.8-1.22,2.93,0,.03,0,.07,0,.1s0,.06,0,.09c.02,1.14.47,2.17,1.21,2.95.04.05.09.09.14.14.7.68,1.63,1.12,2.65,1.22.13.01.27.02.41.02h.11c1.14-.03,2.17-.49,2.94-1.23.05-.04.09-.09.14-.14.74-.77,1.2-1.82,1.22-2.96,0-.03,0-.06,0-.08,0-.04,0-.07,0-.11Zm-1.49,2.88s-.09.09-.14.14c-.7.67-1.63,1.08-2.66,1.11-.04,0-.07,0-.11,0-.14,0-.27,0-.4-.02-.92-.09-1.75-.5-2.38-1.1-.05-.05-.09-.09-.14-.14h0c-.66-.7-1.08-1.64-1.1-2.67,0-.03,0-.06,0-.09,0-.04,0-.07,0-.1.02-1.03.44-1.97,1.11-2.66.05-.05.09-.09.14-.14.65-.62,1.5-1.02,2.45-1.1.11,0,.22-.01.33-.01.06,0,.12,0,.18,0,.99.05,1.89.45,2.57,1.09h0s.09.09.14.14c.67.7,1.1,1.63,1.13,2.67v.19c-.02,1.04-.44,1.99-1.11,2.69Z"/>
    <path class="cls-4" d="m78,25.59l-1.61.11-.25.02h0l.13,1.87,1.65-.11.23-.02v-.03l-.13-1.84Zm-.28,1.71h0l-1.29.09-.1-1.47v-.02s.23-.02.23-.02h0l1.25-.09.1,1.43h0s0,.06,0,.06l-.2.02Z"/>
    <path class="cls-4" d="m68.25,25.86l-.02-.24h-.02s-1.86.13-1.86.13l.11,1.62h0s.02.25.02.25h0l1.87-.13-.11-1.63Zm-1.55,1.56h-.03s-.02-.23-.02-.23l-.09-1.26,1.44-.1h.05v.22s.1,1.27.1,1.27l-1.45.1Z"/>
    <path class="cls-4" d="m74.35,19.74s-.09-.09-.14-.14c-.47-.44-1.1-.72-1.78-.76-.06,0-.11,0-.17,0-.11,0-.23,0-.34.02-.63.07-1.2.35-1.63.77-.05.04-.09.09-.14.14-.46.5-.75,1.15-.77,1.87,0,.03,0,.07,0,.1,0,.03,0,.06,0,.09.02.72.31,1.38.77,1.87h0c.05.05.09.09.14.14.43.41.98.68,1.59.76.13.02.26.03.39.03.04,0,.08,0,.12,0,.72-.03,1.36-.32,1.85-.78l.14-.14c.46-.5.75-1.16.77-1.89v-.19c-.03-.72-.32-1.38-.79-1.87Zm-.12,3.81s-.09.09-.14.14c-.45.42-1.05.69-1.71.72-.04,0-.09,0-.12,0-.14,0-.26,0-.39-.02-.56-.09-1.06-.34-1.46-.71-.05-.05-.09-.09-.13-.14h0c-.43-.46-.69-1.06-.71-1.74v-.2c.02-.66.29-1.26.72-1.72.04-.05.09-.09.14-.14.4-.38.93-.63,1.5-.7.11-.02.23-.02.34-.02.06,0,.11,0,.17,0,.63.04,1.21.3,1.65.7.05.05.09.09.14.14h0c.43.46.71,1.07.73,1.74,0,.04,0,.07,0,.11v.08c-.02.68-.29,1.29-.72,1.75Z"/>
    <ellipse class="cls-4" cx="78.82" cy="28.21" rx=".43" ry=".58" transform="translate(3.13 63.99) rotate(-45)"/>
    <ellipse class="cls-4" cx="65.78" cy="28.27" rx=".58" ry=".43" transform="translate(-.73 54.79) rotate(-45)"/>
    <path class="cls-4" d="m72.19,13.02l-2,2,1.76,1.75.25.25.27-.27,1.74-1.73-2-2Zm0,3.59l-1.59-1.59,1.37-1.37.22-.22,1.59,1.59-1.32,1.32-.27.27Z"/>
    <path class="cls-4" d="m72.48,14.06l-.31-.27-.2.23-.9,1.04.89.77.38.33.13-.15.97-1.12-.96-.84Zm-.16,1.86l-.36-.32-.65-.56.66-.75.22-.25.29.26.72.62-.73.84-.15.17Z"/>
    <g>
      <path class="cls-4" d="m72.37,26.13l-.17,17.7-.05,5.51h-.51l.06-6.59.16-16.63c.13.01.27.02.41.02h.11Z"/>
      <path class="cls-4" d="m72.49,12.49v.27s0,.56,0,.56v.41s0,.34,0,.34v.23s-.02,1.46-.02,1.46v.27s0,.32,0,.32v.41s0,.57,0,.57v.39s-.01,1.13-.01,1.13v.2s-.02,2.38-.02,2.38v.2s0,.07,0,.07v.32s0,0,0,0l-.02,2.41v.19s-.01,1.13-.01,1.13v.39s-.07,0-.11,0c-.14,0-.27,0-.4-.02v-.39s.01-1.14.01-1.14v-.19s.02-2.18.02-2.18h0s0-.28,0-.28v-.12s0-.19,0-.19v-.39s.02-2.18.02-2.18v-.2s.01-1.13.01-1.13v-.39s0-.56,0-.56v-.41s0-.53,0-.53v-.23s.01-1.32.01-1.32v-.27s0-.37,0-.37v-.42s0-.46,0-.46v-.29s.51,0,.51,0Z"/>
    </g>
    <ellipse class="cls-4" cx="72.22" cy="12.06" rx=".58" ry=".77"/>
  </g>
  <g>
    <path class="cls-4" d="m84.42,75.1h-.05l.04.02.02-.02h0Z"/>
    <polygon class="cls-4" points="84.43 75.1 84.41 75.12 84.38 75.1 84.42 75.1 84.43 75.1"/>
    <polygon class="cls-4" points="82.19 90.79 81.94 90.8 81.94 90.79 82.19 90.79"/>
    <path class="cls-4" d="m53.11,86.77c-.4,0-.72.31-.72.7v2.78h.33v-2.78c0-.2.17-.36.39-.36s.39.16.39.36v2.74h.33v-2.74c0-.38-.32-.7-.72-.7Z"/>
    <path class="cls-4" d="m94.51,78.73l-10.07-3.63-.02.02-.04-.02h.06s1.19-1.2,1.19-1.2l-7.06-2.38h-.24l-.63-.26v-.77l.05.04c.88-1.14,1.03-2.8,1.03-2.87v-.18s-1.76-.78-1.76-.78c0-.01-.01-.03-.02-.05-.06-.09-1.43-2.32-3.86-3.04-.19-.08-.39-.14-.61-.18-.05,0-.1-.01-.15-.02-.16-.02-.34-.03-.52-.02-.25,0-.51.04-.77.11,0,0-.1.03-.26.09,0,0,0,0-.01,0-.88.32-2.99,1.23-3.73,2.91h0s-2.21,1.01-2.21,1.01l.07.22s.16.49.35,1.03c.13.38.56,1.5.79,1.79v.7l-2.03.42h0s-.3,0-.3,0l-5.94,2.34.7.9-1.3.5h-.12l-9.06,3.15,2.85,1.96.08,4.74v5.55l8.99-.34h.05l21.95.33h.24s9.25-.34,9.25-.34v-.24c-.02-1.32-.16-6.1-.27-9.51l3.34-1.96Zm-45.38-.03l1.7-.59.03,1.79-1.73-1.19Zm41.67,6.23l-.82-.07v-1.62s.77.13.77.13c.02.52.03,1.05.05,1.56Zm-7.21-11.18l1.11.38-.72.73-.39-.24v-.87Zm-5.11-1.72l4.61,1.55v.86l-1.89-.1v-.3s-1.25-.36-1.25-.36v.6l-2.06-.11-.03-2.14h.62Zm2.47,2.2v.1l-.75-.04v-.28l.75.22Zm-4.68-7.87l-.96-.42c-.42-.65-.92-1.17-1.3-1.52,1.07.57,1.84,1.41,2.26,1.94Zm-3.3-2.38s.01,0,.02,0c0,0,0,0,.01,0,.06.02.12.04.18.06,0,.01.02.02.03.03.01,0,.95.65,1.73,1.74h-1.31c-.16-.85-.48-1.48-.74-1.88.03,0,.06.02.08.03Zm-.99-.2c.11,0,.22,0,.34.02.04,0,.08,0,.13.02.02,0,.04,0,.05,0,.23.29.67.99.86,1.99h-1.48c.04-.89.08-1.68.09-2.04Zm-1.31.29h0c.12-.05.22-.09.3-.11,0,0,0,0,.01,0,.14-.05.23-.08.23-.08.17-.05.34-.08.52-.09-.02.37-.05,1.16-.09,2.03h-1.97c.25-.98.71-1.5,1-1.75Zm-.59.26c-.25.34-.51.82-.67,1.49h-.88l-.82.37c.59-.87,1.6-1.49,2.37-1.86Zm-4.6,3.43l3.15-1.43h6.33l3.29,1.45c-.02.14-.05.35-.11.6l-3.31-1.43h-6.19l-2.95,1.41c-.08-.23-.15-.44-.2-.59Zm.34.98l2.83-1.34.07-.04h6.01l3.29,1.42c-.08.27-.19.57-.34.86v-.81l-3.17-1.35h-5.38l-3.06,1.35v.55c-.09-.2-.17-.43-.25-.65Zm2.01.59c-.22,0-.39.17-.39.39l.02,1.31-.96.09v-2.02l2.61-1.15v2.91l-.89.09v-1.24c0-.22-.17-.39-.39-.39Zm1.54,2.02h5.08l2.85.18-10.77.1,2.85-.28Zm2.5-2.7c-.35,0-.63.28-.63.63v1.56h-1.63v-2.94h4.66l-.03,2.94h-1.74v-1.56c0-.35-.28-.63-.62-.63Zm4.17.62c-.24,0-.43.19-.43.43v1.27s-.95-.07-.95-.07l.03-2.89,2.58,1.1v1.99l-.79-.06v-1.34c0-.24-.19-.43-.44-.43Zm-10.61,2.87l11.94-.11.02,2.12-4.8.06v-1.26h-2.32v1.29l-4.84.07v-2.17Zm6.91,1.07v1.01l-1.82.03v-1.04h1.82Zm-11.89.28l3.4-1.33h1.08s0,2.17,0,2.17l-1.64.11v-.49l-1.13.26v.31l-1.71.11v-1.13Zm2.59.77v.19l-.62.04v-.09l.62-.14Zm-2.89-.65v1.02l-1.15.08-.38-.5,1.53-.6Zm-8.72,10.01l1.91-.3v1.5l-1.89.15-.02-1.35Zm4.86,6.47l-.77.03v-2.81c0-.2.17-.36.39-.36s.39.16.39.36v2.79Zm2.9-.11l-.77.03v-2.38c0-.15.18-.29.38-.29s.39.13.39.29v2.35Zm.62-.02h-.29s0-2.32,0-2.32c0-.34-.32-.62-.72-.62s-.72.28-.72.62v2.39l-1.45.06v-2.78c0-.38-.32-.7-.72-.7s-.72.31-.72.7v2.83l-1.33.05h-.33s-.78.04-.78.04h-.33s-.94.05-.94.05v-4.79l6.19-.49,2.17-.03v5Zm-5.71-6.75l1.43-.22v1.67l-1.43.11v-1.56Zm1.77,1.42v-1.7l1.75-.27v1.83l-1.75.14Zm3.94-.17l-1.69.02v-1.88l1.69-.02v1.88Zm0-2.39h-.93s.1-3.97.1-3.97c0-.19-.17-.34-.39-.34s-.39.16-.39.34v4h-.09s0-.07,0-.07c0-.14-.11-.25-.25-.25s-.25.11-.25.25v.13l-.48.08v-3.59c0-.19-.17-.34-.39-.34s-.39.15-.39.34l.11,3.7-.95.15.05-3.43c0-.19-.17-.34-.39-.34s-.39.15-.39.34l.05,3.54-.74.11v-2.66c0-.34-.16-.62-.37-.63-.22-.02-.4.27-.4.64v2.78l-1.92.3-.09-5.19,5.85-2.03,2.64-.03v6.2Zm8.09,8l-1.65-.03v-1.68h1.65v1.71Zm4.05.06l-1.65-.03v-1.74h1.65v1.77Zm3.95.06l-1.65-.03v-1.8h1.65v1.83Zm4.31.06v-2.4c0-.55-.45-1-1-1s-.99.45-.99,1v2.36l-1.99-.03v-2.35c0-.64-.52-1.16-1.16-1.16s-1.16.52-1.16,1.16v2.32l-1.64-.02v-2.38c0-.64-.52-1.16-1.16-1.16s-1.16.52-1.16,1.16v2.34l-1.73-.02v-2.32c0-.64-.52-1.16-1.16-1.16s-1.16.52-1.16,1.16v2.28l-1.99-.03v-2.33c0-.55-.45-.99-1-.99s-.99.44-.99.99v2.3l-1.63-.02v-5l21.58-.32.05,5.65-1.72-.02Zm-.3-8.47v-4.15c0-.53-.43-.95-.95-.95s-.95.42-.95.95v4.18l-2.14.03v-4.17c0-.53-.43-.95-.95-.95s-.95.42-.95.95v4.2l-1.1.02v-.09s0,0,0,0c0-.14-.11-.25-.24-.25-.14,0-.25.11-.26.24v.11s-.61,0-.61,0v-4.17c0-.53-.42-.95-.95-.95s-.95.42-.95.95v4.19l-1.89.03v-4.14c0-.53-.42-.95-.95-.95s-.95.42-.95.95v4.16l-2.01.03v-4.12c0-.52-.42-.95-.95-.95s-.95.42-.95.95v4.15l-1.86.03v-6.2l21.49-.24.06,6.13-1.94.03Zm1.95.47l.02,1.86-3.8.06v-1.86l3.79-.06Zm-4.29.06v1.87l-4.79.07.07-1.87,4.72-.07Zm-5.22.07l-.06,1.87-7.38.11v-1.88l7.45-.11Zm-7.78.11v1.88l-4.26.06v-1.88l4.26-.06Zm-6.17-7.13l.39-.16h0l6.38-.4,12.45-.17,5.71.3.24.15-25.19.28Zm23.9.24l2.03-.02,6.23,2.24c.04,1.04.1,2.97.17,5.01l-.77-.13v-3.45c0-.38-.18-.7-.41-.71-.24-.02-.45.31-.45.72l.04,3.31-.94-.15-.02-3.75c0-.25-.18-.45-.4-.47-.24-.01-.45.2-.45.47l.06,3.61-1.15-.19-.02-3.77c0-.26-.17-.47-.4-.49-.24-.01-.45.21-.45.49l.06,3.64-.5-.09v-.31c0-.14-.11-.25-.25-.25s-.25.11-.25.25v.23l-.3-.05-.02-3.91c0-.27-.21-.48-.47-.5-.29-.02-.53.21-.53.5v3.88h-.75s-.06-6.12-.06-6.12Zm6.87,9.15l-2.38-.22v-1.84l2.36.39.02,1.67Zm-2.72-2.11v1.86l-1.52-.14v-1.97l1.52.25Zm-4.09-.4l1.47-.02.59.09v2.01l-2.04-.19-.02-1.89Zm2.02,7.95l-.77.03v-2.78c0-.2.17-.36.38-.36s.39.16.39.36v2.74Zm3.03-.11l-.77.03v-2.72c0-.2.17-.36.39-.36s.39.16.39.36v2.7Zm2.83-.17h-.78s0-2.42,0-2.42c0-.16.18-.28.39-.28s.39.13.39.28v2.42Zm.33.05v-2.47c0-.34-.32-.62-.72-.62s-.72.28-.72.62v2.52l-1.38.06v-2.69c0-.38-.32-.7-.72-.7s-.72.32-.72.7v2.74l-1.58.06v-2.73c0-.38-.33-.7-.73-.7s-.72.31-.72.7v2.78l-.83.03-.05-5.63,8.42.78c.06,1.92.1,3.65.12,4.53h-.36Zm.51-11.95l2.25.81-2.18,1.28c-.03-.83-.05-1.55-.07-2.09Z"/>
  </g>
  <path class="cls-5" d="m72.03,49.34h-.16c-.25.79-.58,1.54-.95,2.26h2.14c-.36-.71-.67-1.47-1.03-2.26Zm40.21,81.08c-.5-1.95-1.15-3.86-1.94-5.73-2.1-4.95-5.09-9.39-8.91-13.21-3.81-3.81-8.26-6.81-13.2-8.9-1.96-.83-3.97-1.5-6.01-2.02.78-.27,1.56-.56,2.32-.88,4.1-1.73,7.77-4.21,10.93-7.37,3.16-3.16,5.63-6.83,7.36-10.92,1.8-4.24,2.71-8.74,2.71-13.38s-.91-9.14-2.71-13.38c-1.73-4.09-4.21-7.77-7.36-10.93-3.16-3.16-6.83-5.63-10.93-7.36-2.96-1.25-6.05-2.08-9.23-2.46-.75-.09-1.5-.16-2.26-.2v11.9l1.17,2.55c.15.33.29.65.43.97.23.51.44.99.66,1.43v-13.6c15.36,2.03,27.21,15.18,27.21,31.09,0,16.76-13.15,30.45-29.69,31.31-.55.03-1.11.05-1.67.05-.28,0-.57,0-.85-.01-16.93-.45-30.51-14.31-30.51-31.35s12.73-30.02,28.9-31.27v13.9c.38-.72.7-1.44.93-2.2l1.33-4.42v-10.39c-.76,0-1.51.03-2.26.09-3.77.26-7.44,1.14-10.92,2.62-4.09,1.73-7.77,4.21-10.92,7.36-3.16,3.16-5.63,6.84-7.37,10.93-1.79,4.24-2.7,8.74-2.7,13.38s.91,9.14,2.7,13.38c1.74,4.09,4.21,7.77,7.37,10.92,3.16,3.16,6.83,5.64,10.92,7.37,1.03.43,2.07.82,3.13,1.15-1.71.47-3.39,1.06-5.03,1.76-4.95,2.09-9.39,5.09-13.21,8.9-3.82,3.81-6.81,8.26-8.91,13.21-.79,1.87-1.44,3.79-1.94,5.73-.3,1.16.57,2.29,1.77,2.29.84,0,1.56-.57,1.77-1.38,4.23-16.32,19.05-28.37,36.7-28.37s32.47,12.05,36.7,28.37c.21.81.93,1.38,1.77,1.38,1.04,0,1.83-.85,1.83-1.83,0-.15-.02-.31-.06-.46Zm-40.21-81.08h-.16c-.25.79-.58,1.54-.95,2.26h2.14c-.36-.71-.67-1.47-1.03-2.26Z"/>
  <path class="cls-1" d="m75.75,56.25c-.77-1.46-1.7-2.84-2.5-4.29-.07-.12-.13-.24-.19-.36-.36-.71-.67-1.47-1.03-2.26-.03-.07-.06-.14-.09-.2-.02.07-.04.14-.07.2-.25.79-.58,1.54-.95,2.26-.61,1.18-1.33,2.28-2.03,3.39-.72,1.15-1.3,2.34-1.23,3.77.09,1.91,1.34,3.52,3.21,4.03.19.05.38.09.57.11.64.09,1.29.02,1.9-.17.17-.06.33-.12.5-.19,0,0,0,0,0,0,.32-.15.63-.34.9-.57.21-.17.41-.37.58-.58.11-.14.22-.29.32-.45.94-1.53.94-3.14.11-4.69Zm-7.11,1.43c.24-.95.74-1.76,1.37-2.52-.17.39-.34.79-.5,1.18-.38.96-.63,1.94-.38,2.97.32,1.34,1.2,2.19,2.5,2.65-2.04-.11-3.5-2.22-2.98-4.29Z"/>
  <path class="cls-2" d="m69.12,59.32c-.25-1.03,0-2.01.38-2.97.16-.4.34-.79.5-1.18-.63.75-1.13,1.57-1.37,2.52-.52,2.07.93,4.17,2.98,4.29-1.3-.45-2.17-1.31-2.5-2.65Zm0,0c-.25-1.03,0-2.01.38-2.97.16-.4.34-.79.5-1.18-.63.75-1.13,1.57-1.37,2.52-.52,2.07.93,4.17,2.98,4.29-1.3-.45-2.17-1.31-2.5-2.65Zm0,0c-.25-1.03,0-2.01.38-2.97.16-.4.34-.79.5-1.18-.63.75-1.13,1.57-1.37,2.52-.52,2.07.93,4.17,2.98,4.29-1.3-.45-2.17-1.31-2.5-2.65Zm2.58-16.57l-.06,6.59h.23c.02-.07.05-.13.07-.2.03.07.06.14.09.2h.12l.05-5.51-.5-1.08Z"/>
  <path class="cls-3" d="m72.78,99.31c-.55.03-1.11.05-1.67.05-.28,0-.57,0-.85-.01.58-.03,1.16-.04,1.74-.04.26,0,.52,0,.77,0Z"/>
</svg>